Coordinates
version=1
nRows=107
nColumns=6
inDegrees=yes

Units are S.I. units (second, meters, Newtons, ...)
If the header above contains a line with 'inDegrees', this indicates whether rotational values are in degrees (yes) or radians (no).

endheader
time	foot_tx	hip_flexion_r	knee_angle_r	ankle_angle_r	lumbar
     56.50000000	      0.20260236	     59.15870036	    -73.35919503	      1.16575763	    -12.95636813
     56.51000000	      0.20260601	     59.15129441	    -73.36078308	      1.16596039	    -12.95050474
     56.52000000	      0.20261249	     59.14399954	    -73.36331938	      1.16681151	    -12.94512224
     56.53000000	      0.20261888	     59.13723246	    -73.36644067	      1.16819589	    -12.94043185
     56.54000000	      0.20262567	     59.13122508	    -73.36995053	      1.16977960	    -12.93647054
     56.55000000	      0.20263820	     59.12653125	    -73.37277094	      1.17036215	    -12.93316636
     56.56000000	      0.20263983	     59.12194794	    -73.37754195	      1.17307771	    -12.93046447
     56.57000000	      0.20264195	     59.11853735	    -73.38242194	      1.17546594	    -12.92902245
     56.58000000	      0.20265565	     59.11778886	    -73.38395292	      1.17449354	    -12.92862701
     56.59000000	      0.20263994	     59.11415968	    -73.39304036	      1.18063613	    -12.92943039
     56.60000000	      0.20265232	     59.11374987	    -73.39441795	      1.17986387	    -12.92942415
     56.61000000	      0.20262684	     59.11158395	    -73.40529136	      1.18678771	    -12.93454302
     56.62000000	      0.20261022	     59.10126927	    -73.41339064	      1.19267364	    -12.94752456
     56.63000000	      0.20261277	     59.10365063	    -73.41674572	      1.19220191	    -12.95290236
     56.64000000	      0.20259616	     59.07675575	    -73.42278144	      1.19773023	    -12.99032864
     56.65000000	      0.20259480	     59.08110097	    -73.42621138	      1.19723986	    -12.99518480
     56.66000000	      0.20259232	     59.08547873	    -73.42956242	      1.19689617	    -13.00060025
     56.67000000	      0.20259086	     59.08975677	    -73.43243397	      1.19626041	    -13.00630183
     56.68000000	      0.20258288	     59.09375782	    -73.43427587	      1.19571575	    -13.01309171
     56.69000000	      0.20257301	     59.09746580	    -73.43460208	      1.19474050	    -13.01924155
     56.70000000	      0.20257478	     59.07576688	    -73.43044607	      1.19329879	    -13.05360676
     56.71000000	      0.20256407	     59.08017657	    -73.42879754	      1.19229044	    -13.05661893
     56.72000000	      0.20254807	     59.08396890	    -73.42607620	      1.19191177	    -13.05843454
     56.73000000	      0.20252763	     59.08515223	    -73.42388562	      1.19362322	    -13.05890622
     56.74000000	      0.20252584	     59.12232323	    -73.41752912	      1.18840789	    -13.02068082
     56.75000000	      0.20249693	     59.12362737	    -73.41468446	      1.19140161	    -13.02131804
     56.76000000	      0.20246922	     59.12534716	    -73.41167457	      1.19465945	    -13.02190499
     56.77000000	      0.20243201	     59.16573380	    -73.41492925	      1.19887848	    -12.97927739
     56.78000000	      0.20241338	     59.17052511	    -73.41208647	      1.20159085	    -12.98116215
     56.79000000	      0.20239452	     59.17712964	    -73.41177611	      1.20567222	    -12.98331021
     56.80000000	      0.20237234	     59.21101211	    -73.41682351	      1.21090652	    -12.95452720
     56.81000000	      0.20236819	     59.21924747	    -73.41830788	      1.21475014	    -12.96091082
     56.82000000	      0.20236672	     59.22875247	    -73.42185923	      1.21950795	    -12.96806708
     56.83000000	      0.20235298	     59.23905066	    -73.43071259	      1.22844571	    -12.97382959
     56.84000000	      0.20236744	     59.25029367	    -73.43373709	      1.23175197	    -12.98261427
     56.85000000	      0.20238368	     59.26173226	    -73.43789914	      1.23585193	    -12.99179154
     56.86000000	      0.20240160	     59.27337611	    -73.44194590	      1.24001987	    -13.00136625
     56.87000000	      0.20242109	     59.28530290	    -73.44520074	      1.24381783	    -13.01132354
     56.88000000	      0.20244185	     59.29754376	    -73.44756291	      1.24738148	    -13.02153735
     56.89000000	      0.20246247	     59.31031221	    -73.44971931	      1.25091833	    -13.03202935
     56.90000000	      0.20247677	     59.32395103	    -73.45130972	      1.25469857	    -13.04299596
     56.91000000	      0.20248439	     59.33866307	    -73.45285500	      1.25892721	    -13.05446811
     56.92000000	      0.20248429	     59.35475731	    -73.45436248	      1.26365955	    -13.06658529
     56.93000000	      0.20247676	     59.37254286	    -73.45566481	      1.26875329	    -13.07948580
     56.94000000	      0.20246386	     59.39235801	    -73.45644413	      1.27385617	    -13.09335255
     56.95000000	      0.20244864	     59.41452196	    -73.45631592	      1.27852318	    -13.10836800
     56.96000000	      0.20243357	     59.43937480	    -73.45499128	      1.28240871	    -13.12466803
     56.97000000	      0.20242892	     59.50856594	    -73.45164500	      1.28064996	    -13.09375649
     56.98000000	      0.20241243	     59.53702057	    -73.44850159	      1.28387641	    -13.11596903
     56.99000000	      0.20242833	     59.57719437	    -73.43537193	      1.27855003	    -13.13122675
     57.00000000	      0.20241923	     59.65300959	    -73.42916510	      1.27658296	    -13.11143583
     57.01000000	      0.20241580	     59.69682189	    -73.41746939	      1.27484373	    -13.13682460
     57.02000000	      0.20240373	     59.78078387	    -73.40762955	      1.27226887	    -13.12346312
     57.03000000	      0.20239240	     59.83388456	    -73.39315449	      1.27084603	    -13.15607189
     57.04000000	      0.20237314	     59.92496423	    -73.38170756	      1.26945926	    -13.15336405
     57.05000000	      0.20236378	     59.98738506	    -73.36436411	      1.26768402	    -13.19538642
     57.06000000	      0.20234733	     60.08571505	    -73.35036256	      1.26614435	    -13.20667496
     57.07000000	      0.20233718	     60.15879399	    -73.33307378	      1.26547664	    -13.26002086
     57.08000000	      0.20232893	     60.24226877	    -73.31559559	      1.26458134	    -13.31405102
     57.09000000	      0.20230629	     60.36439887	    -73.30279659	      1.26483822	    -13.33621636
     57.10000000	      0.20229331	     60.45751333	    -73.28745487	      1.26645243	    -13.40465328
     57.11000000	      0.20226859	     60.59228739	    -73.27649670	      1.26864231	    -13.43759879
     57.12000000	      0.20224932	     60.72256724	    -73.26507054	      1.27179730	    -13.48772597
     57.13000000	      0.20223066	     60.86457822	    -73.25487131	      1.27590471	    -13.53577640
     57.14000000	      0.20221092	     61.01878511	    -73.24589703	      1.28118214	    -13.58116138
     57.15000000	      0.20219135	     61.18484757	    -73.23789364	      1.28766034	    -13.62386761
     57.16000000	      0.20217399	     61.36133476	    -73.23052740	      1.29541079	    -13.66496191
     57.17000000	      0.20215195	     61.54730623	    -73.22495738	      1.30570149	    -13.70644289
     57.18000000	      0.20214203	     61.74139647	    -73.21728265	      1.31553882	    -13.74972526
     57.19000000	      0.20212072	     61.94687663	    -73.21390535	      1.33018736	    -13.79064157
     57.20000000	      0.20210729	     62.16074080	    -73.20893721	      1.34530112	    -13.83453526
     57.21000000	      0.20209233	     62.38353044	    -73.20472488	      1.36301674	    -13.88157664
     57.22000000	      0.20208307	     62.61851346	    -73.19978858	      1.38143355	    -13.92868977
     57.23000000	      0.20207697	     62.86633876	    -73.19419464	      1.40086688	    -13.97713300
     57.24000000	      0.20207331	     63.12690564	    -73.18820189	      1.42142842	    -14.02828522
     57.25000000	      0.20206962	     63.39956875	    -73.18248020	      1.44377911	    -14.08439317
     57.26000000	      0.20206941	     63.68527908	    -73.17684314	      1.46736422	    -14.14480630
     57.27000000	      0.20206727	     63.98259827	    -73.17272184	      1.49381395	    -14.21205677
     57.28000000	      0.20206429	     64.29103670	    -73.16992723	      1.52318258	    -14.28655835
     57.29000000	      0.20206796	     64.61047111	    -73.16624292	      1.55394412	    -14.36771853
     57.30000000	      0.20204703	     64.93211755	    -73.16880101	      1.59387458	    -14.46451072
     57.31000000	      0.20203172	     65.25618090	    -73.16864315	      1.63608243	    -14.57598886
     57.32000000	      0.20201382	     65.57423794	    -73.16667776	      1.68311128	    -14.71107545
     57.33000000	      0.20199473	     65.88535616	    -73.16241848	      1.73494877	    -14.86942313
     57.34000000	      0.20197984	     66.15673813	    -73.15341630	      1.79266938	    -15.09006241
     57.35000000	      0.20194112	     66.48710065	    -73.15301454	      1.85668096	    -15.25549926
     57.36000000	      0.20194195	     66.77587866	    -73.14129584	      1.91857241	    -15.49078768
     57.37000000	      0.20193377	     67.15116012	    -73.13932724	      1.98113290	    -15.64529354
     57.38000000	      0.20192999	     67.54570645	    -73.14141827	      2.04506749	    -15.80330395
     57.39000000	      0.20192858	     67.99111096	    -73.14889587	      2.10831909	    -15.92934616
     57.40000000	      0.20193041	     68.48453621	    -73.16155460	      2.17169113	    -16.02552217
     57.41000000	      0.20193059	     69.01563958	    -73.17854544	      2.23699306	    -16.10373394
     57.42000000	      0.20192677	     69.57593959	    -73.19955994	      2.30583020	    -16.17273885
     57.43000000	      0.20191850	     70.15943204	    -73.22354676	      2.37851748	    -16.24012072
     57.44000000	      0.20190433	     70.76326919	    -73.24912983	      2.45458974	    -16.31125111
     57.45000000	      0.20189038	     71.38933950	    -73.27485973	      2.53275029	    -16.38475101
     57.46000000	      0.20187236	     72.03951608	    -73.30097191	      2.61340179	    -16.45913258
     57.47000000	      0.20184952	     72.71508296	    -73.32783011	      2.69712823	    -16.53232019
     57.48000000	      0.20181422	     73.41820180	    -73.35443584	      2.78381365	    -16.60318732
     57.49000000	      0.20177322	     74.15276028	    -73.38106607	      2.87311644	    -16.66473834
     57.50000000	      0.20172428	     74.91423713	    -73.40406110	      2.96386363	    -16.72362052
     57.51000000	      0.20166571	     75.70566406	    -73.42392563	      3.05717167	    -16.77249946
     57.52000000	      0.20159498	     76.52650952	    -73.43883970	      3.15324911	    -16.80871277
     57.53000000	      0.20151494	     77.38144433	    -73.44863632	      3.25258937	    -16.82223440
     57.54000000	      0.20142604	     78.27023655	    -73.45347270	      3.35561692	    -16.81076302
     57.55000000	      0.20133203	     79.19308418	    -73.45439534	      3.46277599	    -16.77176983
     57.56000000	      0.20121351	     80.14838779	    -73.45840897	      3.57953960	    -16.70435709
